<?xml version="1.0" encoding="utf-8"?>
<!-- Generator: Adobe Illustrator 23.0.2, SVG Export Plug-In . SVG Version: 6.00 Build 0)  -->
<svg version="1.1" id="Слой_1" xmlns="http://www.w3.org/2000/svg" xmlns:xlink="http://www.w3.org/1999/xlink" x="0px" y="0px"
	 viewBox="0 0 90 90" style="enable-background:new 0 0 90 90;" xml:space="preserve">
<style type="text/css">
	.st0{fill:#2EAFE0;}
</style>
<g>
	<path class="st0" d="M8,6c0,1.1-0.9,2-2,2H2C0.9,8,0,7.1,0,6V2c0-1.1,0.9-2,2-2h4c1.1,0,2,0.9,2,2V6z"/>
</g>
<g>
	<path class="st0" d="M90,6c0,1.1-0.9,2-2,2h-4c-1.1,0-2-0.9-2-2V2c0-1.1,0.9-2,2-2h4c1.1,0,2,0.9,2,2V6z"/>
</g>
<g>
	<path class="st0" d="M8,88c0,1.1-0.9,2-2,2H2c-1.1,0-2-0.9-2-2v-4c0-1.1,0.9-2,2-2h4c1.1,0,2,0.9,2,2V88z"/>
</g>
<g>
	<path class="st0" d="M90,88c0,1.1-0.9,2-2,2h-4c-1.1,0-2-0.9-2-2v-4c0-1.1,0.9-2,2-2h4c1.1,0,2,0.9,2,2V88z"/>
</g>
<polygon class="st0" points="47,16.81 42.36,20.57 44.5,15 39.5,11.75 45.45,12.06 47,6.3 48.55,12.06 54.5,11.75 49.5,15 
	51.64,20.57 "/>
<polygon class="st0" points="26,22.69 22.91,25.19 24.33,21.48 21,19.31 24.97,19.52 26,15.68 27.03,19.52 31,19.31 27.67,21.48 
	29.09,25.19 "/>
<polygon class="st0" points="67,22.69 63.91,25.19 65.33,21.48 62,19.31 65.97,19.52 67,15.68 68.03,19.52 72,19.31 68.67,21.48 
	70.09,25.19 "/>
</svg>
