<svg id="Слой_1" data-name="Слой 1" xmlns="http://www.w3.org/2000/svg" viewBox="0 0 160.54 25.36"><defs><style>.cls-1{fill:#00b9ff;}</style></defs><title>Cr wdbot</title><path d="M.23,18.36c0,4.25,3.25,7.5,8.37,7.5,4.63,0,7.13-2.5,7.13-4.25,0-1.38-.88-2.25-2.75-2.25s-2.25,1.75-4.38,1.75a2.63,2.63,0,0,1-2.75-2.75v-3.5A2.62,2.62,0,0,1,8.6,12.11c1.88,0,2.13,1.75,4.13,1.75s2.75-.88,2.75-2.25c0-1.75-2.5-4.25-6.88-4.25-5.12,0-8.37,3.25-8.37,7.5Zm24.37.75,4,5.25a3.41,3.41,0,0,0,2.25,1.25c2,0,3-1,3-2.5a4.68,4.68,0,0,0-1-2.25l-2.5-3v-.25a4.43,4.43,0,0,0,2.75-4.13c0-3.37-2.25-5.62-7.5-5.62H20.35a2.44,2.44,0,0,0-2.75,2.5V23.11a2.44,2.44,0,0,0,2.75,2.5,2.44,2.44,0,0,0,2.75-2.5v-4Zm-1.5-4.25V12.11h2.5c1.13,0,1.75.62,1.75,1.37s-.62,1.38-1.75,1.38ZM76,16.36l1.37,6.5c.48,1.75,1.75,3,4.25,3s3.78-1.25,4.25-3l2.88-10.5a10.3,10.3,0,0,0,.5-2.25,2.57,2.57,0,0,0-2.75-2.5,3,3,0,0,0-3.13,2.5l-2,8.25h-.25l-1.62-7.75a3.69,3.69,0,0,0-7.25,0l-1.63,7.75h-.25l-2-8.25a3,3,0,0,0-3.12-2.5,2.57,2.57,0,0,0-2.75,2.5,10.3,10.3,0,0,0,.5,2.25l2.87,10.5c.48,1.75,1.75,3,4.25,3s3.78-1.25,4.25-3l1.38-6.5Zm30.87-1c0-4.25-3.25-7.5-8.63-7.5H93.89a2.44,2.44,0,0,0-2.75,2.5v12.5a2.44,2.44,0,0,0,2.75,2.5h4.37c5.38,0,8.63-3.25,8.63-7.5Zm-8.63-3a2.89,2.89,0,0,1,3,3v2.5a2.89,2.89,0,0,1-3,3H96.64v-8.5ZM115,12.11h2.25c1,0,1.5.5,1.5,1.12s-.5,1.13-1.5,1.13H115Zm0,6.25h3c1.12,0,1.75.62,1.75,1.37s-.63,1.38-1.75,1.38h-3Zm-2.75-10.5a2.45,2.45,0,0,0-2.75,2.5v12.5a2.44,2.44,0,0,0,2.75,2.5H118c5.25,0,7.5-2.25,7.5-5.13,0-3.37-3.75-4.12-3.75-4.12v-.25s2.75-.75,2.75-3.38-2-4.62-7.25-4.62Zm31.49,7c0-4.25-3.25-7.5-8.38-7.5S127,10.61,127,14.86v3.5c0,4.25,3.25,7.5,8.37,7.5s8.38-3.25,8.38-7.5Zm-5.63,3.5c0,2-1.25,3.25-2.75,3.25s-2.75-1.25-2.75-3.25v-3.5c0-2,1.25-3.25,2.75-3.25s2.75,1.25,2.75,3.25Zm11.64-5.5V23.11a2.76,2.76,0,0,0,5.5,0V12.86H158a2.44,2.44,0,0,0,2.75-2.5A2.44,2.44,0,0,0,158,7.86H147a2.44,2.44,0,0,0-2.75,2.5,2.44,2.44,0,0,0,2.75,2.5Z" transform="translate(-0.23 -0.5)"/><circle class="cls-1" cx="47.63" cy="12.32" r="1.5"/><circle class="cls-1" cx="42.88" cy="12.32" r="1.5"/><circle class="cls-1" cx="52.21" cy="12.32" r="1.5"/><path class="cls-1" d="M47.86.5A12.5,12.5,0,0,0,35.37,12.82h0V25.5h12.5a12.5,12.5,0,0,0,0-25Zm0,20.75A8.25,8.25,0,1,1,56.11,13,8.25,8.25,0,0,1,47.86,21.25Z" transform="translate(-0.23 -0.5)"/></svg>