<?xml version="1.0" encoding="utf-8"?>
<!-- Generator: Adobe Illustrator 23.0.2, SVG Export Plug-In . SVG Version: 6.00 Build 0)  -->
<svg version="1.1" id="Слой_1" xmlns="http://www.w3.org/2000/svg" xmlns:xlink="http://www.w3.org/1999/xlink" x="0px" y="0px"
	 viewBox="0 0 1320 40" style="enable-background:new 0 0 1320 40;" xml:space="preserve">
<style type="text/css">
	.st0{fill:#FFFFFF;}
</style>
<g>
	<path class="st0" d="M82,21c0,4.95-5.4,9-12,9H26c-6.6,0-12-4.05-12-9s5.4-9,12-9h44C76.6,12,82,16.05,82,21z"/>
</g>
<g>
	<path class="st0" d="M331,21c0,4.95-5.4,9-12,9h-67c-6.6,0-12-4.05-12-9s5.4-9,12-9h67C325.6,12,331,16.05,331,21z"/>
</g>
<g>
	<path class="st0" d="M1310,20c0,4.95-5.4,9-12,9h-44c-6.6,0-12-4.05-12-9s5.4-9,12-9h44C1304.6,11,1310,15.05,1310,20z"/>
</g>
<g>
	<path class="st0" d="M581,21c0,4.95-5.4,9-12,9h-67c-6.6,0-12-4.05-12-9s5.4-9,12-9h67C575.6,12,581,16.05,581,21z"/>
</g>
<g>
	<path class="st0" d="M830,20c0,4.95-5.4,9-12,9h-67c-6.6,0-12-4.05-12-9s5.4-9,12-9h67C824.6,11,830,15.05,830,20z"/>
</g>
<g>
	<path class="st0" d="M1084,21c0,4.95-5.4,9-12,9h-67c-6.6,0-12-4.05-12-9s5.4-9,12-9h67C1078.6,12,1084,16.05,1084,21z"/>
</g>
</svg>
