<svg xmlns="http://www.w3.org/2000/svg" xmlns:xlink="http://www.w3.org/1999/xlink" viewBox="0 0 306.82 308.48"><defs><style>@font-face {
    font-family: Russo; src: url(../media/Russo.ttf);
   }.a,.f{opacity:0.8;}.a,.b,.f,.g,.h{isolation:isolate;}.b,.f{font-size:19.55px;fill:#3b3b3b;}.b,.f,.g{font-family:Russo;}.c{letter-spacing:-0.02em;}.d{fill:#34a6d1;}.e{fill:#2c93ba;}.g{opacity:0.9;font-size:35.18px;fill:#fbff35;}.h{opacity:0.9;font-size:13.68px;fill:#8bdfff;font-family:PTSans-Regular, PT Sans;}.i{letter-spacing:-0.04em;}.j{opacity:0.2;}.k{opacity:0.25;}.l{fill:none;stroke:#00ffa3;stroke-miterlimit:10;}.m{opacity:0.15;}.n{opacity:0.1;}</style></defs><title>infoblock</title><g class="a"><text class="b" transform="translate(0 16.62) scale(1.02 1)"><tspan class="c">C</tspan><tspan x="12.11" y="0">OMMISSION </tspan></text><text class="b" transform="translate(0 42.03) scale(1.02 1)">FROM <tspan class="c" x="66.01" y="0">C</tspan><tspan x="78.12" y="0">OLLECTED FUNDS</tspan></text></g><path class="d" d="M260,169.08a7.94,7.94,0,0,1-8,7.82H68a7.94,7.94,0,0,1-8-7.82V109.46a7.94,7.94,0,0,1,8-7.82H252a7.94,7.94,0,0,1,8,7.82Z" transform="translate(-12.18 -38.48)"/><path class="e" d="M246,160.28a7.94,7.94,0,0,1-8,7.82H82a7.94,7.94,0,0,1-8-7.82v-43a7.94,7.94,0,0,1,8-7.82H238a7.94,7.94,0,0,1,8,7.82Z" transform="translate(-12.18 -38.48)"/><text class="f" transform="translate(0 212.08) scale(1.02 1)">A<tspan class="c" x="13.72" y="0">C</tspan><tspan x="25.83" y="0">QUIRING</tspan></text><path class="d" d="M259,339.13a7.94,7.94,0,0,1-8,7.82H67a7.94,7.94,0,0,1-8-7.82V279.52a7.94,7.94,0,0,1,8-7.82H251a7.94,7.94,0,0,1,8,7.82Z" transform="translate(-12.18 -38.48)"/><path class="e" d="M245,330.34a7.94,7.94,0,0,1-8,7.82H81a7.94,7.94,0,0,1-8-7.82v-43a7.93,7.93,0,0,1,8-7.82H237a7.93,7.93,0,0,1,8,7.82Z" transform="translate(-12.18 -38.48)"/><text class="g" transform="translate(121.69 110.14) scale(1.02 1)">2.9 %</text><text class="h" transform="translate(159.62 124.04) scale(1.02 1)">monthl<tspan class="i" x="42.05" y="0">y</tspan></text><text class="g" transform="translate(125.07 282.15) scale(1.02 1)">1.4 %</text><g class="j"><image class="k" width="18" height="18" transform="translate(233.82 142.29)" xlink:href="infoblock1.png"/><ellipse class="l" cx="242.82" cy="150.64" rx="5" ry="4.89"/></g><g class="m"><image class="k" width="18" height="18" transform="translate(233.82 160.29)" xlink:href="infoblock2.png"/><ellipse class="l" cx="242.82" cy="168.12" rx="5" ry="4.89"/></g><g class="n"><image class="k" width="18" height="18" transform="translate(233.82 178.29)" xlink:href="infoblock3.png"/><ellipse class="l" cx="242.82" cy="186.14" rx="5" ry="4.89"/></g><g class="n"><image class="k" width="18" height="18" transform="translate(233.82 196.29)" xlink:href="infoblock4.png"/><ellipse class="l" cx="242.82" cy="204.16" rx="5" ry="4.89"/></g><g class="m"><image class="k" width="18" height="18" transform="translate(251.82 160.29)" xlink:href="infoblock5.png"/><ellipse class="l" cx="261.08" cy="168.12" rx="5" ry="4.89"/></g><g class="m"><image class="k" width="18" height="18" transform="translate(270.82 160.29)" xlink:href="infoblock6.png"/><ellipse class="l" cx="279.35" cy="168.12" rx="5" ry="4.89"/></g><g class="n"><image class="k" width="18" height="18" transform="translate(251.82 178.29)" xlink:href="infoblock7.png"/><ellipse class="l" cx="261.08" cy="186.14" rx="5" ry="4.89"/></g><g class="j"><image class="k" width="18" height="18" transform="translate(251.82 142.29)" xlink:href="infoblock8.png"/><ellipse class="l" cx="261.08" cy="150.64" rx="5" ry="4.89"/></g><g class="j"><image class="k" width="18" height="18" transform="translate(270.82 142.29)" xlink:href="infoblock9.png"/><ellipse class="l" cx="279.35" cy="150.64" rx="5" ry="4.89"/></g><g class="j"><image class="k" width="18" height="18" transform="translate(288.82 142.29)" xlink:href="infoblock10.png"/><ellipse class="l" cx="298.11" cy="150.64" rx="5" ry="4.89"/></g></svg>