<svg id="Слой_1" data-name="Слой 1" xmlns="http://www.w3.org/2000/svg" viewBox="0 0 327.55 236.99"><defs><style>.cls-1{opacity:0.2;}.cls-2,.cls-3,.cls-4{fill:#00b9ff;}.cls-3{opacity:0.4;}.cls-3,.cls-4,.cls-5{isolation:isolate;}.cls-4{opacity:0.6;}.cls-5{fill:#2eafe0;opacity:0.9;}.cls-6{fill:none;}</style></defs><title>Phone</title><g class="cls-1"><path class="cls-2" d="M15.54,96.61l68.92-39.8c7.18-4.15,18.81-4.15,26,0L331.3,184.35c7.17,4.14,7.17,10.86,0,15l-68.93,39.81c-7.18,4.14-18.81,4.14-26,0L15.54,111.61C8.36,107.47,8.36,100.75,15.54,96.61Z" transform="translate(-9.13 -5.27)"/></g><path class="cls-3" d="M16.14,78.68,79.87,41.87c8.6-5,22.56-5,31.17,0L326.7,166.41c8.61,5,8.61,13,0,18L263,221.22c-8.61,5-22.57,5-31.18,0L16.14,96.68C7.53,91.71,7.53,83.65,16.14,78.68Z" transform="translate(-9.13 -5.27)"/><path class="cls-4" d="M16.14,62.24l63.73-36.8c8.6-5,22.56-5,31.17,0L326.7,150c8.61,5,8.61,13,0,18L263,204.79c-8.61,5-22.57,5-31.18,0L16.14,80.24C7.53,75.27,7.53,67.21,16.14,62.24Z" transform="translate(-9.13 -5.27)"/><path class="cls-5" d="M15.59,45.81,79.32,9c8.61-5,22.56-5,31.17,0L326.15,133.54c8.61,5,8.61,13,0,18l-63.73,36.8c-8.61,5-22.57,5-31.18,0L15.59,63.81C7,58.84,7,50.78,15.59,45.81Z" transform="translate(-9.13 -5.27)"/><path class="cls-6" d="M16.14,45.81,79.87,9c8.6-5,22.56-5,31.17,0L326.7,133.54c8.61,5,8.61,13,0,18L263,188.35c-8.61,5-22.57,5-31.18,0L16.14,63.81C7.53,58.84,7.53,50.78,16.14,45.81Z" transform="translate(-9.13 -5.27)"/></svg>