<?xml version="1.0" encoding="utf-8"?>
<!-- Generator: Adobe Illustrator 23.0.2, SVG Export Plug-In . SVG Version: 6.00 Build 0)  -->
<svg version="1.1" id="Слой_1" xmlns="http://www.w3.org/2000/svg" xmlns:xlink="http://www.w3.org/1999/xlink" x="0px" y="0px"
	 viewBox="0 0 90 90" style="enable-background:new 0 0 90 90;" xml:space="preserve">
<style type="text/css">
	.st0{fill:#2EAFE0;}
	.st1{fill:none;stroke:#2EAFE0;stroke-miterlimit:10;}
</style>
<g>
	<path class="st0" d="M8,6c0,1.1-0.9,2-2,2H2C0.9,8,0,7.1,0,6V2c0-1.1,0.9-2,2-2h4c1.1,0,2,0.9,2,2V6z"/>
</g>
<g>
	<path class="st0" d="M90,6c0,1.1-0.9,2-2,2h-4c-1.1,0-2-0.9-2-2V2c0-1.1,0.9-2,2-2h4c1.1,0,2,0.9,2,2V6z"/>
</g>
<g>
	<path class="st0" d="M8,88c0,1.1-0.9,2-2,2H2c-1.1,0-2-0.9-2-2v-4c0-1.1,0.9-2,2-2h4c1.1,0,2,0.9,2,2V88z"/>
</g>
<g>
	<path class="st0" d="M90,88c0,1.1-0.9,2-2,2h-4c-1.1,0-2-0.9-2-2v-4c0-1.1,0.9-2,2-2h4c1.1,0,2,0.9,2,2V88z"/>
</g>
<line class="st1" x1="21" y1="36.5" x2="32" y2="36.5"/>
<line class="st1" x1="15" y1="43" x2="31.5" y2="43"/>
<line class="st1" x1="21" y1="49" x2="31" y2="49"/>
</svg>
