<?xml version="1.0" encoding="utf-8"?>
<!-- Generator: Adobe Illustrator 23.0.2, SVG Export Plug-In . SVG Version: 6.00 Build 0)  -->
<svg version="1.1" id="Слой_1" xmlns="http://www.w3.org/2000/svg" xmlns:xlink="http://www.w3.org/1999/xlink" x="0px" y="0px"
	 viewBox="0 0 90 90" style="enable-background:new 0 0 90 90;" xml:space="preserve">
<style type="text/css">
	.st0{fill:#2EAFE0;}
	.st1{opacity:0.7;}
</style>
<g>
	<path class="st0" d="M8,6c0,1.1-0.9,2-2,2H2C0.9,8,0,7.1,0,6V2c0-1.1,0.9-2,2-2h4c1.1,0,2,0.9,2,2V6z"/>
</g>
<g>
	<path class="st0" d="M90,6c0,1.1-0.9,2-2,2h-4c-1.1,0-2-0.9-2-2V2c0-1.1,0.9-2,2-2h4c1.1,0,2,0.9,2,2V6z"/>
</g>
<g>
	<path class="st0" d="M8,88c0,1.1-0.9,2-2,2H2c-1.1,0-2-0.9-2-2v-4c0-1.1,0.9-2,2-2h4c1.1,0,2,0.9,2,2V88z"/>
</g>
<g>
	<path class="st0" d="M90,88c0,1.1-0.9,2-2,2h-4c-1.1,0-2-0.9-2-2v-4c0-1.1,0.9-2,2-2h4c1.1,0,2,0.9,2,2V88z"/>
</g>
<g class="st1">
	<path class="st0" d="M17,46c0,0.55-0.45,1-1,1h-6c-0.55,0-1-0.45-1-1v-2c0-0.55,0.45-1,1-1h6c0.55,0,1,0.45,1,1V46z"/>
</g>
<g class="st1">
	<path class="st0" d="M79,46c0,0.55-0.45,1-1,1h-6c-0.55,0-1-0.45-1-1v-2c0-0.55,0.45-1,1-1h6c0.55,0,1,0.45,1,1V46z"/>
</g>
<g class="st1">
	<path class="st0" d="M49,73c0,0.55-0.45,1-1,1h-6c-0.55,0-1-0.45-1-1v-2c0-0.55,0.45-1,1-1h6c0.55,0,1,0.45,1,1V73z"/>
</g>
<g class="st1">
	<path class="st0" d="M49,18c0,0.55-0.45,1-1,1h-6c-0.55,0-1-0.45-1-1v-2c0-0.55,0.45-1,1-1h6c0.55,0,1,0.45,1,1V18z"/>
</g>
</svg>
