<?xml version="1.0" encoding="utf-8"?>
<!-- Generator: Adobe Illustrator 23.0.2, SVG Export Plug-In . SVG Version: 6.00 Build 0)  -->
<svg version="1.1" id="Слой_1" xmlns="http://www.w3.org/2000/svg" xmlns:xlink="http://www.w3.org/1999/xlink" x="0px" y="0px"
	 viewBox="0 0 90 90" style="enable-background:new 0 0 90 90;" xml:space="preserve">
<style type="text/css">
	.st0{fill:#2EAFE0;}
	.st1{opacity:0.7;fill:none;stroke:#2EAFE0;stroke-width:0.75;stroke-miterlimit:10;}
	.st2{opacity:0.5;fill:none;stroke:#2EAFE0;stroke-width:2;stroke-miterlimit:10;}
	.st3{opacity:0.6;fill:none;stroke:#2EAFE0;stroke-width:1.5;stroke-miterlimit:10;}
</style>
<g>
	<path class="st0" d="M8,6c0,1.1-0.9,2-2,2H2C0.9,8,0,7.1,0,6V2c0-1.1,0.9-2,2-2h4c1.1,0,2,0.9,2,2V6z"/>
</g>
<g>
	<path class="st0" d="M90,6c0,1.1-0.9,2-2,2h-4c-1.1,0-2-0.9-2-2V2c0-1.1,0.9-2,2-2h4c1.1,0,2,0.9,2,2V6z"/>
</g>
<g>
	<path class="st0" d="M8,88c0,1.1-0.9,2-2,2H2c-1.1,0-2-0.9-2-2v-4c0-1.1,0.9-2,2-2h4c1.1,0,2,0.9,2,2V88z"/>
</g>
<g>
	<path class="st0" d="M90,88c0,1.1-0.9,2-2,2h-4c-1.1,0-2-0.9-2-2v-4c0-1.1,0.9-2,2-2h4c1.1,0,2,0.9,2,2V88z"/>
</g>
<circle class="st1" cx="75.5" cy="60.5" r="2"/>
<circle class="st2" cx="75" cy="75" r="5"/>
<circle class="st3" cx="59.5" cy="75.5" r="3.5"/>
</svg>
