<svg id="Слой_1" data-name="Слой 1" xmlns="http://www.w3.org/2000/svg" viewBox="0 0 600 600"><defs><style>.cls-1{fill:#f6f6f6;opacity:0.9;}.cls-2{fill:#29b6f6;}.cls-3{fill:#fff;}.cls-4{fill:#b0bec5;}.cls-5{fill:#cfd8dc;}</style></defs><title>tgico</title><rect class="cls-1" width="600" height="600" rx="50"/><path class="cls-2" d="M300,500c110.46,0,200-89.54,200-200S410.46,100,300,100,100,189.54,100,300,189.54,500,300,500Z"/><path class="cls-3" d="M399.5,210,362,401.26S360.43,410,349.59,410c-5.76,0-8.73-2.74-8.73-2.74l-81.14-67.33-39.7-20-51-13.55s-9-2.63-9-10.13c0-6.25,9.33-9.23,9.33-9.23l213.16-84.68S389,200,393.75,200c2.92,0,6.25,1.25,6.25,5A28.92,28.92,0,0,1,399.5,210Z"/><path class="cls-4" d="M290,365.05l-34.26,33.74a6.59,6.59,0,0,1-3.48,1.2,4.87,4.87,0,0,1-2.19-.43l9.64-59.65Z"/><path class="cls-5" d="M359,242a5,5,0,0,0-7-.93L220,320s21.06,58.92,24.27,69.12,5.8,10.45,5.8,10.45l9.64-59.65L358,249A5,5,0,0,0,359,242Z"/></svg>